<?xml version="1.0" encoding="utf-8"?>
<!-- Generator: Adobe Illustrator 19.0.0, SVG Export Plug-In . SVG Version: 6.00 Build 0)  -->
<svg version="1.1" id="Layer_1" xmlns="http://www.w3.org/2000/svg" xmlns:xlink="http://www.w3.org/1999/xlink" x="0px" y="0px"
	 viewBox="0 0 1000 1000" style="enable-background:new 0 0 1000 1000;" xml:space="preserve">
<style type="text/css">
	.st0{fill:#1C3664;}
	.st1{fill:#1E97CF;}
	.st2{fill:#666766;}
	.st3{fill:#FFFFFF;}
	.st4{fill:#016699;}
</style>
<g id="XMLID_964_">
	<path id="XMLID_557_" class="st0" d="M500,92.5C274.9,92.5,92.5,274.9,92.5,500S274.9,907.5,500,907.5S907.5,725.1,907.5,500
		S725.1,92.5,500,92.5z M748.6,251.4c32.3,32.3,57.7,69.9,75.4,111.8c2.7,6.4,5.2,13,7.5,19.5c14.2,72.3-21.8,145.6-89.5,178.3
		c-36,17.4-76.1,21.1-114.1,10.6c10.4-18.6,16.7-39.5,18.3-60.8c1.9-25.6-3-51.4-14.2-74.7c-13-26.9-33.4-48.7-59.2-63.4l67.9-195
		C681,195.4,717.3,220.1,748.6,251.4z M540.3,583.5c-22.3,10.8-47.5,12.2-70.9,4c-23.4-8.2-42.3-24.9-53-47.2
		c-10.8-22.3-12.2-47.5-4.1-70.9c8.1-23.4,24.9-42.2,47.3-53c12.7-6.1,26.2-9.2,40.2-9.2c35.5,0,68.3,20.6,83.7,52.4
		C605.8,505.7,586.4,561.3,540.3,583.5z M176.1,363.2c17.7-41.9,43.1-79.5,75.4-111.8s69.9-57.7,111.8-75.4
		c43.3-18.3,89.3-27.6,136.8-27.6c30.7,0,60.8,3.9,89.9,11.6l-67.9,195c-29.4-4.5-58.9-0.1-85.8,12.9c-7.4,3.6-14.4,7.7-21.1,12.5
		c-27.8-12.2-58.5-18.5-88.9-18.3c-32.2,0.2-64.4,7.7-93.2,21.6c-32.8,15.8-60.3,38.8-81.1,67.5C156,420.9,164.1,391.5,176.1,363.2z
		 M251.4,748.6c-32.3-32.3-57.7-69.9-75.4-111.8c-3-7.1-5.7-14.3-8.3-21.5c-16.5-72.9,18.9-149.4,88.5-183.1
		c36.9-17.8,79.6-21,118.8-9.2c-26.2,42.5-29.2,95.5-7.3,140.8c13.1,27,33.4,48.8,59.2,63.5l-67.9,194.9
		C319,804.6,282.7,779.8,251.4,748.6z M748.6,748.6c-32.3,32.3-69.9,57.7-111.8,75.4c-43.3,18.3-89.3,27.6-136.8,27.6
		c-30.7,0-60.8-3.9-90-11.6L478,645c7.4,1.1,14.8,1.7,22.1,1.7c22.1,0,43.5-4.9,63.7-14.7c9.3-4.5,18.2-10,26.3-16.4
		c25.9,10.4,53,15.6,80.6,15.6c32.8,0,64.7-7.3,94.7-21.8c33.9-16.4,62.9-41.4,84.2-72c-3.6,34.2-12.2,67.5-25.6,99.3
		C806.2,678.7,780.9,716.3,748.6,748.6z"/>
	<path id="XMLID_802_" class="st1" d="M427.1,627.3l-67.9,194.9c-40.3-17.6-76.5-42.4-107.8-73.6c-32.3-32.3-57.7-69.9-75.4-111.8
		c-3-7.1-5.7-14.3-8.3-21.5c-16.5-72.9,18.9-149.4,88.5-183.1c36.9-17.8,79.6-21,118.8-9.2c-26.2,42.5-29.2,95.5-7.3,140.8
		C381,590.8,401.3,612.7,427.1,627.3z"/>
	<path id="XMLID_801_" class="st2" d="M849.5,537.5c-3.6,34.2-12.2,67.5-25.6,99.3c-17.7,41.8-43.1,79.5-75.4,111.8
		s-69.9,57.7-111.8,75.4c-43.3,18.3-89.3,27.6-136.8,27.6c-30.7,0-60.8-3.9-90-11.6L478,645c7.4,1.1,14.8,1.7,22.1,1.7
		c22.1,0,43.5-4.9,63.7-14.7c9.3-4.5,18.2-10,26.3-16.4c25.9,10.4,53,15.6,80.6,15.6c32.8,0,64.7-7.3,94.7-21.8
		C799.3,593.1,828.3,568.1,849.5,537.5z"/>
	<path id="XMLID_800_" class="st3" d="M741.9,561c-36,17.4-76.1,21.1-114.1,10.6c10.4-18.6,16.7-39.5,18.3-60.8
		c1.9-25.6-3-51.4-14.2-74.7c-13-26.9-33.4-48.7-59.2-63.4l67.9-195c40.3,17.6,76.6,42.4,107.8,73.7c32.3,32.3,57.7,69.9,75.4,111.8
		c2.7,6.4,5.2,13,7.5,19.5C845.6,455,809.6,528.3,741.9,561z"/>
	<path id="XMLID_806_" class="st4" d="M589.9,160.1l-67.9,195c-29.4-4.5-58.9-0.1-85.8,12.9c-7.4,3.6-14.4,7.7-21.1,12.5
		c-27.8-12.2-58.5-18.5-88.9-18.3c-32.2,0.2-64.4,7.7-93.2,21.6c-32.8,15.8-60.3,38.8-81.1,67.5c4.2-30.3,12.3-59.7,24.2-88
		c17.7-41.9,43.1-79.5,75.4-111.8s69.9-57.7,111.8-75.4c43.3-18.3,89.3-27.6,136.8-27.6C530.7,148.5,560.8,152.4,589.9,160.1z"/>
</g>
</svg>
