<?xml version="1.0" encoding="utf-8"?>
<!-- Generator: Adobe Illustrator 19.0.0, SVG Export Plug-In . SVG Version: 6.00 Build 0)  -->
<svg version="1.1" id="Layer_1" xmlns="http://www.w3.org/2000/svg" xmlns:xlink="http://www.w3.org/1999/xlink" x="0px" y="0px"
	 viewBox="0 0 1198.4 542.5" style="enable-background:new 0 0 1198.4 542.5;" xml:space="preserve">
<style type="text/css">
	.st0{fill:#1C3664;}
	.st1{fill:#1E97CF;}
	.st2{fill:#666766;}
	.st3{fill:#FFFFFF;}
	.st4{fill:#016699;}
</style>
<g id="XMLID_980_">
	<path id="XMLID_990_" class="st0" d="M548.3,293.4c0,5-0.8,9.4-2.2,13.1c-1.5,3.6-3.5,6.6-6,9c-2.6,2.4-5.7,4.2-9.3,5.5
		c-3.7,1.3-7.8,1.9-12.3,1.9c-4.4,0-8.6-0.6-12.3-1.9c-3.6-1.2-6.7-3.1-9.3-5.5c-2.6-2.4-4.6-5.4-6.1-9c-1.5-3.7-2.2-8.1-2.2-13.1
		v-88.2H471v88.2c0,7.5,1.2,14.1,3.6,19.8c2.4,5.7,5.8,10.5,10.2,14.3c4.3,3.8,9.4,6.7,15.2,8.6c5.7,1.9,11.9,2.8,18.5,2.8
		c6.4,0,12.5-0.9,18.2-2.8c5.8-1.9,10.9-4.8,15.2-8.6c4.3-3.8,7.8-8.6,10.3-14.3c2.5-5.7,3.8-12.3,3.8-19.8v-88.2h-17.7V293.4z"/>
	<polygon id="XMLID_989_" class="st0" points="692.1,299.1 691.2,303.6 690.3,299.9 662.7,205.3 647.9,205.3 620.1,299.8 
		619.2,303.2 618.4,299.2 594.9,205.3 576.7,205.3 610.4,337.2 626,337.2 655.4,238 684.1,337.2 699.7,337.2 733.5,205.3 
		715.3,205.3 	"/>
	<path id="XMLID_985_" class="st0" d="M827.5,277.1c-2.4-3-5.2-5.5-8.5-7.6c-0.8-0.5-1.7-1-2.6-1.5c0.4-0.3,0.8-0.5,1.1-0.8
		c2.7-2,5.1-4.3,7-6.9c1.9-2.6,3.4-5.6,4.4-8.8c1-3.2,1.5-6.6,1.5-10.1c0-6.1-1.1-11.6-3.2-16.1c-2.1-4.6-5.2-8.5-9.2-11.5
		c-3.9-2.9-8.6-5.1-14.1-6.5c-5.3-1.4-11.3-2-17.9-2h-40.4v131.9h45.7c6.3,0,12.1-0.8,17.3-2.4c5.4-1.6,10-4.1,13.9-7.4
		c3.9-3.3,7-7.4,9.1-12.3c2.1-4.8,3.2-10.4,3.2-16.6c0-4-0.6-7.8-1.9-11.5C831.7,283.4,829.9,280.1,827.5,277.1z M763.3,221.4h22.8
		c9.3,0,16.2,1.7,20.5,5c4.1,3.1,6.1,8,6.1,14.9c0,6.5-1.9,11.3-5.9,14.6c-4.2,3.4-10.3,5.3-18.2,5.4h-25.2V221.4z M815.5,308.2
		c-1.1,2.7-2.8,5-4.9,6.9c-2.2,1.9-4.9,3.4-8,4.4c-3.3,1.1-7,1.6-11.2,1.6h-28.1v-44h28.9c4.4,0,8.3,0.6,11.4,1.7
		c3.1,1.1,5.7,2.6,7.7,4.5c2,1.9,3.4,4.1,4.4,6.6c1,2.6,1.5,5.5,1.5,8.6C817.2,302.2,816.6,305.4,815.5,308.2z"/>
	<path id="XMLID_984_" class="st0" d="M931,294.3c-1.2,9.7-4.3,17-9.3,21.6c-4.9,4.6-12.5,7-22.5,7c-5.2,0-9.9-1-13.9-3.1
		c-4-2.1-7.4-5-10.2-8.8c-2.8-3.8-5-8.5-6.5-13.8c-1.5-5.5-2.3-11.5-2.3-18v-15.9c0-6.7,0.8-12.9,2.4-18.3v0
		c1.5-5.3,3.8-9.9,6.7-13.7c2.8-3.7,6.4-6.5,10.4-8.6c4.1-2,8.8-3,14-3c4.9,0,9.3,0.7,12.9,1.9c3.5,1.3,6.6,3.1,9,5.4
		c2.5,2.3,4.4,5.3,5.9,8.8c1.5,3.7,2.6,7.9,3.2,12.6l0.4,3.1h17.7l-0.4-3.9c-0.7-6.8-2.3-12.9-4.7-18.3c-2.5-5.5-5.9-10.2-10-14
		c-4.1-3.8-9.2-6.8-14.9-8.8c-5.7-1.9-12.1-2.9-19.1-2.9c-7.8,0-15,1.5-21.3,4.4c-6.3,2.9-11.8,7.1-16.3,12.4
		c-4.4,5.2-7.9,11.6-10.2,19c-2.3,7.3-3.5,15.4-3.5,24.1v15.7c0,8.7,1.2,16.8,3.5,24.1c2.4,7.3,5.8,13.7,10.2,19
		c4.4,5.3,9.8,9.5,16.1,12.4c6.2,2.9,13.2,4.4,20.8,4.4c7.2,0,13.8-1,19.5-3c5.8-2,10.9-4.9,15.1-8.7c4.2-3.8,7.6-8.5,10.1-13.9
		c2.4-5.4,4-11.5,4.8-18.1l0.4-3.9h-17.7L931,294.3z"/>
	<path id="XMLID_981_" class="st0" d="M1058.4,241L1058.4,241c-2.8-7.4-6.7-13.8-11.8-19.1c-5-5.3-11.1-9.5-18.1-12.3
		c-6.9-2.8-14.6-4.3-22.8-4.3h-38.4v131.9h37.8c8.4,0,16.3-1.4,23.3-4.3c7.1-2.9,13.2-7,18.3-12.3c5.1-5.3,9-11.7,11.8-19.1
		c2.8-7.3,4.2-15.6,4.2-24.6v-11.4C1062.5,256.6,1061.1,248.3,1058.4,241z M1045,277c0,6.7-1,12.8-2.8,18.3c-1.9,5.4-4.5,10-8,13.9
		c-3.4,3.8-7.6,6.8-12.5,8.9c-4.9,2.1-10.5,3.2-16.7,3.2h-20.1v-99.8h20.8c5.9,0,11.4,1,16.2,3.1c4.8,2,8.9,5,12.3,8.7
		c3.4,3.7,6.1,8.4,8,13.7c1.9,5.5,2.9,11.6,2.9,18.4V277z"/>
</g>
<g id="XMLID_1003_">
	<path id="XMLID_1008_" class="st0" d="M271.2,135.9c-74.8,0-135.3,60.6-135.3,135.3s60.6,135.3,135.3,135.3S406.5,346,406.5,271.2
		S345.9,135.9,271.2,135.9z M353.7,188.7c10.7,10.7,19.2,23.2,25,37.1c0.9,2.1,1.7,4.3,2.5,6.5c4.7,24-7.3,48.4-29.7,59.2
		c-11.9,5.8-25.3,7-37.9,3.5c3.5-6.2,5.5-13.1,6.1-20.2c0.6-8.5-1-17.1-4.7-24.8c-4.3-8.9-11.1-16.2-19.7-21.1l22.6-64.8
		C331.3,170.1,343.3,178.3,353.7,188.7z M284.6,299c-7.4,3.6-15.8,4.1-23.5,1.3c-7.8-2.7-14-8.3-17.6-15.7
		c-3.6-7.4-4.1-15.8-1.4-23.6c2.7-7.8,8.3-14,15.7-17.6c4.2-2,8.7-3.1,13.4-3.1c11.8,0,22.7,6.8,27.8,17.4
		C306.3,273.1,299.9,291.6,284.6,299z M163.6,225.8c5.9-13.9,14.3-26.4,25-37.1c10.7-10.7,23.2-19.2,37.1-25
		c14.4-6.1,29.7-9.2,45.4-9.2c10.2,0,20.2,1.3,29.8,3.8l-22.6,64.8c-9.8-1.5-19.6,0-28.5,4.3c-2.4,1.2-4.8,2.6-7,4.1
		c-9.2-4-19.4-6.2-29.5-6.1c-10.7,0.1-21.4,2.5-31,7.2c-10.9,5.3-20,12.9-26.9,22.4C156.9,245,159.6,235.2,163.6,225.8z
		 M188.6,353.8c-10.7-10.7-19.2-23.2-25-37.1c-1-2.4-1.9-4.7-2.7-7.2c-5.5-24.2,6.3-49.6,29.4-60.8c12.2-5.9,26.4-7,39.5-3
		c-8.7,14.1-9.7,31.7-2.4,46.8c4.3,9,11.1,16.2,19.7,21.1l-22.5,64.7C211,372.4,199,364.2,188.6,353.8z M353.7,353.8
		c-10.7,10.7-23.2,19.2-37.1,25c-14.4,6.1-29.7,9.2-45.4,9.2c-10.2,0-20.2-1.3-29.9-3.9l22.6-64.7c2.4,0.4,4.9,0.6,7.3,0.6
		c7.3,0,14.5-1.6,21.2-4.9c3.1-1.5,6-3.3,8.7-5.4c8.6,3.5,17.6,5.2,26.8,5.2c10.9,0,21.5-2.4,31.4-7.2c11.3-5.5,20.9-13.7,28-23.9
		c-1.2,11.4-4,22.4-8.5,33C372.9,330.6,364.4,343.1,353.7,353.8z"/>
	<path id="XMLID_1007_" class="st1" d="M246.9,313.5l-22.5,64.7c-13.4-5.8-25.4-14.1-35.8-24.5c-10.7-10.7-19.2-23.2-25-37.1
		c-1-2.4-1.9-4.7-2.7-7.2c-5.5-24.2,6.3-49.6,29.4-60.8c12.2-5.9,26.4-7,39.5-3c-8.7,14.1-9.7,31.7-2.4,46.8
		C231.6,301.4,238.4,308.6,246.9,313.5z"/>
	<path id="XMLID_1006_" class="st2" d="M387.3,283.7c-1.2,11.4-4,22.4-8.5,33c-5.9,13.9-14.3,26.4-25,37.1
		c-10.7,10.7-23.2,19.2-37.1,25c-14.4,6.1-29.7,9.2-45.4,9.2c-10.2,0-20.2-1.3-29.9-3.9l22.6-64.7c2.4,0.4,4.9,0.6,7.3,0.6
		c7.3,0,14.5-1.6,21.2-4.9c3.1-1.5,6-3.3,8.7-5.4c8.6,3.5,17.6,5.2,26.8,5.2c10.9,0,21.5-2.4,31.4-7.2
		C370.6,302.1,380.2,293.9,387.3,283.7z"/>
	<path id="XMLID_1005_" class="st3" d="M351.5,291.5c-11.9,5.8-25.3,7-37.9,3.5c3.5-6.2,5.5-13.1,6.1-20.2c0.6-8.5-1-17.1-4.7-24.8
		c-4.3-8.9-11.1-16.2-19.7-21.1l22.6-64.8c13.4,5.8,25.4,14.1,35.8,24.5c10.7,10.7,19.2,23.2,25,37.1c0.9,2.1,1.7,4.3,2.5,6.5
		C386,256.3,374,280.6,351.5,291.5z"/>
	<path id="XMLID_1004_" class="st4" d="M301,158.3l-22.6,64.8c-9.8-1.5-19.6,0-28.5,4.3c-2.4,1.2-4.8,2.6-7,4.1
		c-9.2-4-19.4-6.2-29.5-6.1c-10.7,0.1-21.4,2.5-31,7.2c-10.9,5.3-20,12.9-26.9,22.4c1.4-10,4.1-19.8,8-29.2
		c5.9-13.9,14.3-26.4,25-37.1c10.7-10.7,23.2-19.2,37.1-25c14.4-6.1,29.7-9.2,45.4-9.2C281.4,154.5,291.3,155.8,301,158.3z"/>
</g>
</svg>
