<?xml version="1.0" encoding="utf-8"?>
<!-- Generator: Adobe Illustrator 19.0.0, SVG Export Plug-In . SVG Version: 6.00 Build 0)  -->
<svg version="1.1" id="Layer_1" xmlns="http://www.w3.org/2000/svg" xmlns:xlink="http://www.w3.org/1999/xlink" x="0px" y="0px"
	 viewBox="0 0 714.6 678.9" style="enable-background:new 0 0 714.6 678.9;" xml:space="preserve">
<style type="text/css">
	.st0{fill:#1C3664;}
	.st1{fill:#1E97CF;}
	.st2{fill:#666766;}
	.st3{fill:#FFFFFF;}
	.st4{fill:#016699;}
</style>
<g id="XMLID_1268_">
	<g id="XMLID_1298_">
		<path id="XMLID_1299_" class="st0" d="M177.8,525c0,3.8-0.6,7.1-1.7,9.9c-1.1,2.7-2.6,4.9-4.4,6.6c-1.9,1.7-4.2,3.1-6.8,4
			c-2.8,1-5.9,1.4-9.3,1.4c-3.4,0-6.5-0.5-9.3-1.4c-2.7-0.9-5-2.3-6.9-4c-1.9-1.7-3.4-3.9-4.4-6.6c-1.1-2.7-1.7-6.1-1.7-9.9v-73.6
			h-18.3V525c0,6.3,1,12,3.1,16.8c2.1,4.9,5,9.1,8.8,12.4c3.7,3.3,8.1,5.7,13,7.4c4.8,1.6,10.1,2.4,15.6,2.4
			c5.4,0,10.6-0.8,15.4-2.4c5-1.6,9.3-4.1,13.1-7.3c3.7-3.3,6.7-7.4,8.9-12.3c2.1-4.9,3.2-10.5,3.2-16.9v-73.6h-18.4V525z"/>
		<polygon id="XMLID_1300_" class="st0" points="295.7,525 274.3,451.4 259.2,451.4 237.6,524.8 219.2,451.4 200.3,451.4 
			228.7,562.5 244.4,562.5 266.8,487 288.7,562.5 304.3,562.5 332.8,451.4 313.9,451.4 		"/>
		<path id="XMLID_1303_" class="st0" d="M408.2,510.5c-1.9-2.4-4.3-4.6-7-6.3c1.7-1.4,3.3-3.1,4.6-4.9c1.7-2.3,3-4.9,3.9-7.7
			c0.9-2.8,1.3-5.7,1.3-8.8c0-5.3-0.9-10-2.7-13.9c-1.9-4.1-4.6-7.5-8.1-10.1c-3.4-2.5-7.4-4.4-12.1-5.6c-4.5-1.1-9.5-1.7-15.1-1.7
			h-34.8v111.1h39.1c5.3,0,10.2-0.7,14.7-2.1c4.6-1.4,8.6-3.6,12-6.4c3.4-2.9,6.1-6.5,7.9-10.7c1.8-4.2,2.7-8.9,2.7-14.2
			c0-3.5-0.6-6.8-1.7-10C411.8,516,410.2,513,408.2,510.5z M396.3,529.2c0,2.6-0.4,5-1.3,7c-0.8,1.9-2,3.5-3.4,4.8
			c-1.6,1.4-3.5,2.4-5.8,3.2c-2.4,0.8-5.3,1.2-8.5,1.2h-20.8v-31.7H378c3.4,0,6.3,0.4,8.6,1.3c2.2,0.8,4.1,1.9,5.5,3.3
			c1.4,1.3,2.4,2.8,3.1,4.6C395.9,524.9,396.3,527,396.3,529.2z M356.5,496.8v-28.4H373c7.1,0,12.3,1.2,15.5,3.6
			c2.8,2.1,4.2,5.6,4.2,10.5c0,4.7-1.3,8.1-4.1,10.3c-3,2.5-7.6,3.8-13.5,3.9H356.5z"/>
		<path id="XMLID_1305_" class="st0" d="M488.7,525.4c-0.9,7.4-3.3,12.9-6.9,16.4c-3.6,3.4-9.3,5.1-16.9,5.1
			c-3.9,0-7.4-0.8-10.4-2.3c-3-1.5-5.5-3.7-7.6-6.5c-2.1-2.9-3.8-6.5-4.9-10.6c-1.2-4.3-1.8-9-1.8-14.1v-12.9
			c0-5.3,0.6-10.1,1.9-14.3c1.2-4.1,2.9-7.6,5.1-10.4c2.1-2.7,4.7-4.9,7.8-6.4c3-1.5,6.5-2.2,10.5-2.2c3.8,0,7.1,0.5,9.8,1.5
			c2.6,0.9,4.8,2.3,6.6,4c1.8,1.7,3.2,3.9,4.3,6.4c1.2,2.8,2,6.1,2.4,9.7l0.5,4.3h18.3l-0.5-5.4c-0.6-5.7-1.9-10.9-4-15.5
			c-2.1-4.7-5-8.7-8.6-12c-3.6-3.3-7.9-5.8-12.8-7.5c-4.8-1.7-10.2-2.5-16.1-2.5c-6.6,0-12.7,1.3-18.1,3.8
			c-5.4,2.5-10.1,6.1-13.9,10.6c-3.8,4.5-6.7,9.9-8.7,16.1c-2,6.1-2.9,12.9-2.9,20.2v12.7c0,7.3,1,14.1,3,20.2
			c2,6.2,4.9,11.6,8.6,16.1c3.8,4.6,8.4,8.1,13.7,10.6c5.3,2.5,11.3,3.7,17.7,3.7c6.1,0,11.6-0.9,16.5-2.5c5-1.7,9.4-4.2,13-7.5
			c3.6-3.3,6.5-7.3,8.7-12c2.1-4.5,3.4-9.7,4-15.4l0.6-5.4h-18.4L488.7,525.4z"/>
		<path id="XMLID_1308_" class="st0" d="M596,481.7L596,481.7c-2.4-6.3-5.7-11.7-10-16.2c-4.3-4.5-9.5-8.1-15.4-10.5
			c-5.9-2.4-12.4-3.6-19.3-3.6h-33.2v111.1h32.7c7.1,0,13.7-1.2,19.7-3.6c6-2.4,11.2-5.9,15.5-10.4c4.3-4.5,7.7-9.9,10-16.2
			c2.3-6.2,3.5-13.1,3.5-20.7v-9.3C599.5,494.8,598.3,487.9,596,481.7z M581.2,502.1v9.5c0,5.2-0.7,9.9-2.2,14.2
			c-1.4,4.1-3.5,7.7-6.1,10.6c-2.6,2.9-5.7,5.1-9.4,6.7c-3.7,1.6-8,2.4-12.8,2.4h-14.3v-77h14.9c4.6,0,8.7,0.8,12.3,2.4
			c3.6,1.5,6.7,3.8,9.3,6.6c2.6,2.8,4.6,6.4,6.1,10.5C580.5,492.1,581.2,496.9,581.2,502.1z"/>
	</g>
	<g id="XMLID_1255_">
		<path id="XMLID_1260_" class="st0" d="M357.3,115c-74.8,0-135.3,60.6-135.3,135.3s60.6,135.3,135.3,135.3s135.3-60.6,135.3-135.3
			S432,115,357.3,115z M439.8,167.8c10.7,10.7,19.2,23.2,25,37.1c0.9,2.1,1.7,4.3,2.5,6.5c4.7,24-7.3,48.4-29.7,59.2
			c-11.9,5.8-25.3,7-37.9,3.5c3.5-6.2,5.5-13.1,6.1-20.2c0.6-8.5-1-17.1-4.7-24.8c-4.3-8.9-11.1-16.2-19.7-21.1l22.6-64.8
			C417.4,149.2,429.4,157.4,439.8,167.8z M370.7,278.1c-7.4,3.6-15.8,4.1-23.5,1.3c-7.8-2.7-14-8.3-17.6-15.7
			c-3.6-7.4-4.1-15.8-1.4-23.6c2.7-7.8,8.3-14,15.7-17.6c4.2-2,8.7-3.1,13.4-3.1c11.8,0,22.7,6.8,27.8,17.4
			C392.4,252.3,386,270.7,370.7,278.1z M249.7,204.9c5.9-13.9,14.3-26.4,25-37.1c10.7-10.7,23.2-19.2,37.1-25
			c14.4-6.1,29.7-9.2,45.4-9.2c10.2,0,20.2,1.3,29.8,3.8l-22.6,64.8c-9.8-1.5-19.6,0-28.5,4.3c-2.4,1.2-4.8,2.6-7,4.1
			c-9.2-4-19.4-6.2-29.5-6.1c-10.7,0.1-21.4,2.5-31,7.2c-10.9,5.3-20,12.9-26.9,22.4C243.1,224.1,245.7,214.3,249.7,204.9z
			 M274.7,332.9c-10.7-10.7-19.2-23.2-25-37.1c-1-2.4-1.9-4.7-2.7-7.2c-5.5-24.2,6.3-49.6,29.4-60.8c12.2-5.9,26.4-7,39.5-3
			c-8.7,14.1-9.7,31.7-2.4,46.8c4.3,9,11.1,16.2,19.7,21.1l-22.5,64.7C297.2,351.5,285.1,343.3,274.7,332.9z M439.8,332.9
			c-10.7,10.7-23.2,19.2-37.1,25c-14.4,6.1-29.7,9.2-45.4,9.2c-10.2,0-20.2-1.3-29.9-3.9l22.6-64.7c2.4,0.4,4.9,0.6,7.3,0.6
			c7.3,0,14.5-1.6,21.2-4.9c3.1-1.5,6-3.3,8.7-5.4c8.6,3.5,17.6,5.2,26.8,5.2c10.9,0,21.5-2.4,31.4-7.2c11.3-5.5,20.9-13.7,28-23.9
			c-1.2,11.4-4,22.4-8.5,33C459,309.7,450.6,322.2,439.8,332.9z"/>
		<path id="XMLID_1259_" class="st1" d="M333.1,292.7l-22.5,64.7c-13.4-5.8-25.4-14.1-35.8-24.5c-10.7-10.7-19.2-23.2-25-37.1
			c-1-2.4-1.9-4.7-2.7-7.2c-5.5-24.2,6.3-49.6,29.4-60.8c12.2-5.9,26.4-7,39.5-3c-8.7,14.1-9.7,31.7-2.4,46.8
			C317.8,280.5,324.5,287.8,333.1,292.7z"/>
		<path id="XMLID_1258_" class="st2" d="M473.4,262.8c-1.2,11.4-4,22.4-8.5,33c-5.9,13.9-14.3,26.4-25,37.1
			c-10.7,10.7-23.2,19.2-37.1,25c-14.4,6.1-29.7,9.2-45.4,9.2c-10.2,0-20.2-1.3-29.9-3.9l22.6-64.7c2.4,0.4,4.9,0.6,7.3,0.6
			c7.3,0,14.5-1.6,21.2-4.9c3.1-1.5,6-3.3,8.7-5.4c8.6,3.5,17.6,5.2,26.8,5.2c10.9,0,21.5-2.4,31.4-7.2
			C456.7,281.3,466.3,273,473.4,262.8z"/>
		<path id="XMLID_1257_" class="st3" d="M437.6,270.6c-11.9,5.8-25.3,7-37.9,3.5c3.5-6.2,5.5-13.1,6.1-20.2c0.6-8.5-1-17.1-4.7-24.8
			c-4.3-8.9-11.1-16.2-19.7-21.1l22.6-64.8c13.4,5.8,25.4,14.1,35.8,24.5c10.7,10.7,19.2,23.2,25,37.1c0.9,2.1,1.7,4.3,2.5,6.5
			C472.1,235.4,460.1,259.8,437.6,270.6z"/>
		<path id="XMLID_1256_" class="st4" d="M387.1,137.5l-22.6,64.8c-9.8-1.5-19.6,0-28.5,4.3c-2.4,1.2-4.8,2.6-7,4.1
			c-9.2-4-19.4-6.2-29.5-6.1c-10.7,0.1-21.4,2.5-31,7.2c-10.9,5.3-20,12.9-26.9,22.4c1.4-10,4.1-19.8,8-29.2
			c5.9-13.9,14.3-26.4,25-37.1c10.7-10.7,23.2-19.2,37.1-25c14.4-6.1,29.7-9.2,45.4-9.2C367.5,133.6,377.5,134.9,387.1,137.5z"/>
	</g>
</g>
</svg>
